<?xml version="1.0" standalone="no"?>
<!DOCTYPE svg PUBLIC "-//W3C//DTD SVG 20010904//EN"
 "http://www.w3.org/TR/2001/REC-SVG-20010904/DTD/svg10.dtd">
<svg version="1.0" xmlns="http://www.w3.org/2000/svg"
 width="408.000000pt" height="408.000000pt" viewBox="0 0 408.000000 408.000000"
 preserveAspectRatio="xMidYMid meet">
<metadata>
Created by potrace 1.14, written by Peter Selinger 2001-2017
</metadata>
<g transform="translate(0.000000,408.000000) scale(0.100000,-0.100000)"
fill="#000000" stroke="none">
<path d="M1840 3314 c-89 -16 -203 -52 -285 -90 -157 -73 -338 -224 -437 -364
-42 -60 -98 -154 -98 -165 0 -3 35 -5 78 -5 l77 0 40 63 c59 91 197 225 296
286 157 96 301 139 489 146 213 7 419 -52 589 -168 75 -51 191 -168 248 -249
l55 -78 75 0 c88 0 87 -7 15 114 -56 95 -206 253 -308 324 -134 94 -314 165
-479 191 -83 13 -265 10 -355 -5z"/>
<path d="M418 2610 c-113 -19 -233 -107 -277 -203 -80 -175 -54 -368 67 -495
81 -85 185 -123 324 -117 71 3 165 40 221 87 l27 23 -44 50 -44 49 -38 -25
c-202 -133 -442 10 -421 252 6 73 47 160 91 194 92 70 229 73 328 7 l40 -26
45 48 c25 27 41 51 36 55 -5 3 -25 18 -44 33 -76 59 -200 86 -311 68z"/>
<path d="M1090 2483 c-29 -76 -99 -259 -156 -406 -57 -147 -104 -270 -104
-272 0 -2 32 -3 71 -2 l71 2 16 40 c8 22 17 42 19 45 5 6 254 8 271 2 6 -2 21
-23 31 -47 l19 -42 70 -2 70 -1 -23 62 c-56 154 -287 744 -294 751 -4 4 -31
-55 -61 -130z m108 -336 c23 -66 40 -123 37 -127 -3 -5 -45 -9 -95 -9 l-89 -1
47 135 c25 74 49 131 53 127 3 -4 25 -60 47 -125z"/>
<path d="M1564 2595 c-2 -5 -3 -186 -2 -400 l3 -390 65 0 64 0 0 283 c0 155 0
282 1 282 2 0 89 -123 236 -335 l160 -230 70 -2 69 -2 0 398 c0 310 -3 400
-12 404 -7 2 -38 4 -68 3 l-55 -1 0 -278 c0 -152 -3 -276 -7 -275 -3 2 -93
127 -200 278 l-193 275 -64 0 c-35 0 -65 -4 -67 -10z"/>
<path d="M2412 2206 l3 -401 128 2 c184 2 294 39 378 126 129 132 119 448 -18
568 -82 71 -183 100 -371 103 l-122 3 2 -401z m314 249 c92 -38 141 -112 149
-226 12 -175 -87 -285 -267 -295 -38 -2 -57 1 -60 9 -3 10 -2 506 1 529 2 12
138 -1 177 -17z"/>
<path d="M3256 2602 c-9 -2 -48 -21 -86 -43 -38 -21 -74 -39 -80 -39 -19 0
-14 -21 26 -108 0 -1 27 7 59 18 32 11 59 20 60 20 1 0 2 -141 2 -313 0 -173
3 -318 6 -324 4 -6 34 -11 67 -12 l60 -1 1 117 c0 132 0 637 -1 669 0 18 -6
21 -48 20 -26 -1 -56 -2 -66 -4z"/>
<path d="M3502 2596 c-5 -9 -6 -57 -3 -111 1 -13 20 -15 119 -14 164 1 154 2
142 -18 -9 -16 -260 -641 -260 -648 0 -2 105 -2 233 -2 l232 2 0 65 0 65 -129
3 c-71 1 -131 4 -133 5 -1 2 56 149 127 327 71 178 127 326 124 329 -10 11
-445 7 -452 -3z"/>
<path d="M4075 2160 c0 -239 1 -337 2 -218 2 120 2 316 0 435 -1 120 -2 22 -2
-217z"/>
<path d="M1062 1722 l-43 -3 32 -57 c139 -247 361 -432 624 -520 158 -53 390
-71 545 -43 312 57 598 247 759 505 73 117 73 119 -18 118 -40 -1 -74 -2 -76
-4 -1 -2 -22 -32 -45 -68 -127 -189 -341 -335 -578 -396 -131 -34 -316 -36
-444 -5 -241 57 -452 199 -589 395 -55 77 -71 85 -167 78z"/>
</g>
</svg>
